<?xml version="1.0" encoding="UTF-8"?>
<svg id="_레이어_1" data-name="레이어 1" xmlns="http://www.w3.org/2000/svg" viewBox="0 0 73.7 73.7">
  <defs>
    <style>
      .cls-1 {
        fill: #efefef;
      }
    </style>
  </defs>
  <path class="cls-1" d="M73.7,21.36v30.99c0,11.73-9.63,21.36-21.36,21.36h-30.99c-11.73,0-21.36-9.63-21.36-21.36h0v-30.99C0,9.63,9.63,0,21.36,0h30.99c11.73,0,21.36,9.63,21.36,21.36h0M61.14,17.17c0-2.51-2.09-4.61-4.61-4.61s-4.61,2.09-4.61,4.61,2.09,4.61,4.61,4.61h0c2.51,0,4.61-2.09,4.61-4.61h0M56.11,36.85c0-10.47-8.38-19.26-19.26-19.26s-19.26,8.38-19.26,19.26,8.38,19.26,19.26,19.26h0c10.47,0,19.26-8.38,19.26-19.26"/>
  <path class="cls-1" d="M36.85,24.71c6.7,0,12.56,5.44,12.56,12.56,0,6.7-5.44,12.56-12.56,12.56-6.7,0-12.56-5.44-12.56-12.56h0c0-7.12,5.86-12.56,12.56-12.56h0"/>
</svg>