<?xml version="1.0" encoding="UTF-8"?>
<svg id="_레이어_1" data-name="레이어 1" xmlns="http://www.w3.org/2000/svg" xmlns:xlink="http://www.w3.org/1999/xlink" viewBox="0 0 73.7 73.7">
  <defs>
    <style>
      .cls-1 {
        fill: #707070;
      }

      .cls-2 {
        fill: #efefef;
      }

      .cls-3 {
        clip-path: url(#clippath-10);
      }

      .cls-4 {
        clip-path: url(#clippath-1);
      }

      .cls-5 {
        clip-path: url(#clippath-4);
      }

      .cls-6 {
        clip-path: url(#clippath-7);
      }
    </style>
    <clipPath id="clippath-1">
      <path class="cls-1" d="M11.14,25.87h3.79s.02,11.34,0,13.98c0,1.93,3.95,1.95,3.94.03l.02-13.86s1.27,0,3.77.01c2.36,0,2.36-4.04,0-4.04-2.66,0-11.54-.08-11.54-.08-2.23,0-2.22,3.96,0,3.96"/>
    </clipPath>
    <clipPath id="clippath-4">
      <path class="cls-1" d="M29.3,26.61l2.11,7.2h-4.4l2.29-7.2ZM26.93,23.23c-.93,2.24-4.3,12.8-5.42,15.61-.81,2.03,2.68,3.68,3.49,1.65l.76-2.89h6.94s-.24.12.68,2.77c.75,2.14,4.35.66,3.6-1.49-1.07-3.06-4.75-14.09-5.42-15.65-.31-.72-1.42-1.24-2.5-1.24-.89,0-1.76.35-2.13,1.24"/>
    </clipPath>
    <clipPath id="clippath-7">
      <path class="cls-1" d="M38.31,23.9c0,3.59.02,15.16.02,15.16,0,0-.3,2.3,1.51,2.3s5.83-.02,7.62-.02,1.77-4.13,0-4.13-5.04-.02-5.04-.02c0,0,.02-10.71.01-13.3,0-1.26-1.03-1.89-2.05-1.89s-2.06.63-2.05,1.9"/>
    </clipPath>
    <clipPath id="clippath-10">
      <path class="cls-1" d="M49.71,23.32c.04,1.57-.05,15.81-.05,16.87,0,1.67,3.9,1.66,3.89,0,0-1.93,0-5.6,0-5.6l1.14-1,5,7.43c1.01,1.45,4.19-1.17,3.18-2.62l-5.31-7.61s3.6-4.24,5.03-5.78c.83-.9-1.74-3.71-2.57-2.81-.8.87-6.45,7.02-6.45,7.02,0,0,.05-3.86,0-6-.02-.81-.93-1.2-1.87-1.2-1,0-2.02.45-2,1.32"/>
    </clipPath>
  </defs>
  <path class="cls-2" d="M36.85,0C16.5,0,0,14.2,0,31.71c0,11.4,6.99,21.39,17.48,26.98-.77,3.13-2.79,11.35-3.2,13.1-.5,2.18.73,2.15,1.54,1.57.63-.46,10.1-7.47,14.18-10.49,2.22.36,4.5.55,6.84.55,20.35,0,36.85-14.2,36.85-31.71S57.2,0,36.85,0"/>
  <g>
    <g>
      <path class="cls-1" d="M11.14,25.87h3.79s.02,11.34,0,13.98c0,1.93,3.95,1.95,3.94.03l.02-13.86s1.27,0,3.77.01c2.36,0,2.36-4.04,0-4.04-2.66,0-11.54-.08-11.54-.08-2.23,0-2.22,3.96,0,3.96"/>
      <g class="cls-4">
        <rect class="cls-1" x="8.91" y="21.91" width="16.12" height="19.9"/>
      </g>
    </g>
    <g>
      <path class="cls-1" d="M29.3,26.61l2.11,7.2h-4.4l2.29-7.2ZM26.93,23.23c-.93,2.24-4.3,12.8-5.42,15.61-.81,2.03,2.68,3.68,3.49,1.65l.76-2.89h6.94s-.24.12.68,2.77c.75,2.14,4.35.66,3.6-1.49-1.07-3.06-4.75-14.09-5.42-15.65-.31-.72-1.42-1.24-2.5-1.24-.89,0-1.76.35-2.13,1.24"/>
      <g class="cls-5">
        <rect class="cls-1" x="20.7" y="22" width="17.03" height="20.52"/>
      </g>
    </g>
    <g>
      <path class="cls-1" d="M38.31,23.9c0,3.59.02,15.16.02,15.16,0,0-.3,2.3,1.51,2.3s5.83-.02,7.62-.02,1.77-4.13,0-4.13-5.04-.02-5.04-.02c0,0,.02-10.71.01-13.3,0-1.26-1.03-1.89-2.05-1.89s-2.06.63-2.05,1.9"/>
      <g class="cls-6">
        <rect class="cls-1" x="38.03" y="22" width="11.21" height="19.36"/>
      </g>
    </g>
    <g>
      <path class="cls-1" d="M49.71,23.32c.04,1.57-.05,15.81-.05,16.87,0,1.67,3.9,1.66,3.89,0,0-1.93,0-5.6,0-5.6l1.14-1,5,7.43c1.01,1.45,4.19-1.17,3.18-2.62l-5.31-7.61s3.6-4.24,5.03-5.78c.83-.9-1.74-3.71-2.57-2.81-.8.87-6.45,7.02-6.45,7.02,0,0,.05-3.86,0-6-.02-.81-.93-1.2-1.87-1.2-1,0-2.02.45-2,1.32"/>
      <g class="cls-3">
        <rect class="cls-1" x="49.66" y="21.29" width="14.23" height="21.18"/>
      </g>
    </g>
  </g>
</svg>