<?xml version="1.0" encoding="UTF-8"?>
<svg id="Layer_1" data-name="Layer 1" xmlns="http://www.w3.org/2000/svg" viewBox="0 0 73.7 73.7">
  <defs>
    <style>
      .cls-1 {
        fill: #eeeeef;
      }

      .cls-2 {
        fill: #717070;
      }
    </style>
  </defs>
  <path class="cls-1" d="M73.7,57.29c0,9.06-7.34,16.41-16.41,16.41H16.4c-9.06,0-16.4-7.35-16.4-16.41V16.39C0,7.33,7.34,0,16.4,0h40.9c9.07,0,16.41,7.33,16.41,16.39v40.9Z"/>
  <path class="cls-2" d="M14.54,16.54c.02,13.53,0,27.07,0,40.6,5.1.02,10.2.02,15.3,0,.08-6.71-.1-13.41.08-20.14,1.67,2.34,3.2,4.77,4.91,7.05,2.85,4.42,6.08,8.57,8.83,13.06,5.13.13,10.27,0,15.4.07.06-.64.11-1.26.11-1.89-.07-12.91.07-25.85-.07-38.76-5.08-.05-10.16.02-15.23-.02-.03,6.73.04,13.49-.04,20.24-4.72-6.68-9.17-13.54-13.99-20.14-5.09-.22-10.21-.07-15.3-.07Z"/>
</svg>