<?xml version="1.0" encoding="UTF-8"?>
<svg id="Layer_1" data-name="Layer 1" xmlns="http://www.w3.org/2000/svg" viewBox="0 0 152.88 198.43">
  <defs>
    <style>
      .cls-1 {
        fill: #efefef;
      }
    </style>
  </defs>
  <path class="cls-1" d="M139.26,120h-.05c8.59-12.36,13.67-27.36,13.67-43.56C152.88,34.22,118.66,0,76.44,0S0,34.22,0,76.44c0,16.12,5.02,31.05,13.54,43.38h-.15s2.28,2.84,2.28,2.84c.94,1.24,1.9,2.46,2.91,3.63l57.87,72.13,57.12-71.31c1.76-1.98,3.42-4.04,4.97-6.2l.73-.92ZM76.44,45.2c17.25,0,31.24,13.99,31.24,31.24s-13.99,31.24-31.24,31.24-31.24-13.99-31.24-31.24,13.99-31.24,31.24-31.24Z"/>
</svg>